<svg width="732" height="186" viewBox="0 0 732 186" fill="none" xmlns="http://www.w3.org/2000/svg">
<path d="M51.7999 150.2C28.1999 150.2 8.1999 140.6 -9.73642e-05 132.2V97C10.7999 114.8 33.3999 124.2 50.3999 124.2C65.5999 124.2 73.3999 117.8 73.3999 108C73.3999 99.8 70.5999 95 48.3999 88.4L37.1999 85.2C14.3999 78.6 -9.73642e-05 67.4 -9.73642e-05 44.2C-9.73642e-05 21.6 18.9999 1.40004 53.1999 1.40004C71.9999 1.40004 88.1999 7.80004 96.1999 14.4V46.4C89.5999 37.2 72.9999 27.4 54.5999 27.4C37.1999 27.4 29.5999 35.2 29.5999 43.6C29.5999 51.2 33.1999 55 55.3999 61.6L66.5999 64.8C89.3999 71.4 103.2 83.4 103.2 106.2C103.2 131 84.1999 150.2 51.7999 150.2ZM125.076 185.6L145.476 139.2L104.476 47.2H134.876L160.276 110.4L185.476 47.2H213.276L154.676 185.6H125.076ZM223.87 146.8V47.2H251.47V68C256.87 56.2 267.67 44.2 285.27 44.2C305.87 44.2 315.07 59 315.07 78.6V146.8H287.47V86.8C287.47 75.4 284.07 68.6 273.67 68.6C262.07 68.6 253.87 81.4 251.47 92.8V146.8H223.87ZM376.203 149.6C357.203 149.6 344.003 138.6 344.003 115.6V69.4H326.003V56.2L371.403 20H371.603V47.2H395.203V69.4H371.603V111.6C371.603 122.6 376.603 126.4 384.803 126.4C390.603 126.4 395.403 124.2 398.803 121.4L394.403 144C391.403 146.8 384.603 149.6 376.203 149.6ZM412.542 146.8V4.80004H440.142V68C445.542 56.2 456.342 44.2 473.942 44.2C494.542 44.2 503.742 59 503.742 78.6V146.8H476.142V86.8C476.142 75.4 472.742 68.6 462.342 68.6C450.742 68.6 442.542 81.4 440.142 92.8V146.8H412.542ZM523.675 146.8V47.2H551.275V146.8H523.675ZM537.475 31.2C527.875 31.2 521.075 24.4 521.075 15.6C521.075 6.80004 527.875 4.33922e-05 537.475 4.33922e-05C546.875 4.33922e-05 553.675 6.80004 553.675 15.6C553.675 24.4 546.875 31.2 537.475 31.2ZM653.317 47.2L678.517 110.4L703.917 47.2H731.717L673.117 185.6H643.517L663.717 139.4L632.917 69.4H608.317V146.8H580.917V69.4H564.717V47.2H580.917V37C580.917 16.8 592.517 1.60005 613.117 1.60005C621.717 1.60005 629.117 4.40005 632.517 6.40004L635.917 28.6C633.317 26.8 628.117 24.4 622.117 24.4C612.717 24.4 608.317 30.2 608.317 39V47.2H653.317Z" fill="white"/>
</svg>
